<svg width="42" height="29" viewBox="0 0 42 29" fill="none" xmlns="http://www.w3.org/2000/svg">
<path d="M7.308 21L4.914 16.428H4.896V21H0.9V8.256H6.84C7.872 8.256 8.754 8.442 9.486 8.814C10.218 9.174 10.764 9.672 11.124 10.308C11.496 10.932 11.682 11.64 11.682 12.432C11.682 13.284 11.442 14.04 10.962 14.7C10.494 15.36 9.816 15.834 8.928 16.122L11.7 21H7.308ZM4.896 13.764H6.48C6.864 13.764 7.152 13.68 7.344 13.512C7.536 13.332 7.632 13.056 7.632 12.684C7.632 12.348 7.53 12.084 7.326 11.892C7.134 11.7 6.852 11.604 6.48 11.604H4.896V13.764ZM22.7866 15.834C22.7866 16.11 22.7686 16.374 22.7326 16.626H16.3066C16.3666 17.502 16.7326 17.94 17.4046 17.94C17.8366 17.94 18.1486 17.742 18.3406 17.346H22.5706C22.4266 18.066 22.1206 18.714 21.6526 19.29C21.1966 19.854 20.6146 20.304 19.9066 20.64C19.2106 20.964 18.4426 21.126 17.6026 21.126C16.5946 21.126 15.6946 20.916 14.9026 20.496C14.1226 20.076 13.5106 19.476 13.0666 18.696C12.6346 17.904 12.4186 16.98 12.4186 15.924C12.4186 14.868 12.6346 13.95 13.0666 13.17C13.5106 12.378 14.1226 11.772 14.9026 11.352C15.6946 10.932 16.5946 10.722 17.6026 10.722C18.6106 10.722 19.5046 10.932 20.2846 11.352C21.0766 11.76 21.6886 12.348 22.1206 13.116C22.5646 13.884 22.7866 14.79 22.7866 15.834ZM18.7366 14.88C18.7366 14.544 18.6286 14.292 18.4126 14.124C18.1966 13.944 17.9266 13.854 17.6026 13.854C16.8946 13.854 16.4806 14.196 16.3606 14.88H18.7366ZM28.0464 7.68V21H24.0504V7.68H28.0464ZM33.8472 12.234C34.0992 11.766 34.4592 11.4 34.9272 11.136C35.4072 10.86 35.9772 10.722 36.6372 10.722C37.4292 10.722 38.1432 10.932 38.7792 11.352C39.4152 11.76 39.9132 12.36 40.2732 13.152C40.6452 13.932 40.8312 14.856 40.8312 15.924C40.8312 16.992 40.6452 17.922 40.2732 18.714C39.9132 19.494 39.4152 20.094 38.7792 20.514C38.1432 20.922 37.4292 21.126 36.6372 21.126C35.9772 21.126 35.4072 20.994 34.9272 20.73C34.4592 20.454 34.0992 20.082 33.8472 19.614V25.86H29.8512V10.848H33.8472V12.234ZM36.7812 15.924C36.7812 15.384 36.6432 14.964 36.3672 14.664C36.0912 14.364 35.7372 14.214 35.3052 14.214C34.8732 14.214 34.5192 14.364 34.2432 14.664C33.9672 14.964 33.8292 15.384 33.8292 15.924C33.8292 16.464 33.9672 16.884 34.2432 17.184C34.5192 17.484 34.8732 17.634 35.3052 17.634C35.7372 17.634 36.0912 17.484 36.3672 17.184C36.6432 16.884 36.7812 16.464 36.7812 15.924Z" fill="white"/>
<line x1="1" y1="25" x2="28" y2="25" stroke="#599BFF" stroke-width="2"/>
</svg>
