<svg width="100" height="100" viewBox="0 0 100 100" fill="none" xmlns="http://www.w3.org/2000/svg">
<path fill-rule="evenodd" clip-rule="evenodd" d="M39.3337 9.33325C37.2119 9.33325 35.1771 10.1761 33.6768 11.6764C32.1765 13.1767 31.3337 15.2115 31.3337 17.3333V54.6666C31.3337 56.7883 32.1765 58.8231 33.6768 60.3234C35.1771 61.8237 37.2119 62.6666 39.3337 62.6666H55.3337C57.4554 62.6666 59.4902 61.8237 60.9905 60.3234C62.4908 58.8231 63.3337 56.7883 63.3337 54.6666V17.3333C63.3337 15.2115 62.4908 13.1767 60.9905 11.6764C59.4902 10.1761 57.4554 9.33325 55.3337 9.33325H39.3337ZM42.7817 26.1146C43.2817 25.6147 43.9599 25.3338 44.667 25.3338C45.3741 25.3338 46.0523 25.6147 46.5523 26.1146L54.5523 34.1146C55.0523 34.6147 55.3331 35.2928 55.3331 35.9999C55.3331 36.707 55.0523 37.3852 54.5523 37.8852L46.5523 45.8852C46.0494 46.371 45.3758 46.6398 44.6766 46.6337C43.9774 46.6276 43.3086 46.3472 42.8141 45.8528C42.3197 45.3583 42.0393 44.6895 42.0332 43.9903C42.0271 43.2911 42.2959 42.6175 42.7817 42.1146L46.2297 38.6666H23.3337C22.6264 38.6666 21.9481 38.3856 21.448 37.8855C20.9479 37.3854 20.667 36.7072 20.667 35.9999C20.667 35.2927 20.9479 34.6144 21.448 34.1143C21.9481 33.6142 22.6264 33.3333 23.3337 33.3333H46.2297L42.7817 29.8853C42.2817 29.3852 42.0009 28.707 42.0009 27.9999C42.0009 27.2928 42.2817 26.6147 42.7817 26.1146V26.1146Z" fill="#FEFEFE"/>
</svg>
