<svg width="100" height="100" viewBox="0 0 100 100" fill="none" xmlns="http://www.w3.org/2000/svg">
<path d="M39.3939 40.1871L40.7303 45.978C40.9424 46.8902 39.9455 47.6114 39.1394 47.1235L34.0909 44.0689L29.0212 47.1235C28.8425 47.2319 28.6358 47.2853 28.427 47.2771C28.2181 47.2689 28.0163 47.1994 27.8467 47.0772C27.6771 46.9551 27.5471 46.7858 27.4731 46.5903C27.399 46.3948 27.3842 46.1819 27.4303 45.978L28.7879 40.2083L24.3333 36.3689C24.1733 36.2336 24.0569 36.054 23.9989 35.8526C23.9409 35.6512 23.9438 35.4371 24.0074 35.2374C24.0709 35.0377 24.1922 34.8613 24.3559 34.7305C24.5197 34.5996 24.7185 34.5202 24.9273 34.5023L30.8242 33.9932L33.1152 28.5629C33.4758 27.6932 34.7061 27.6932 35.0667 28.5629L37.3576 33.972L43.2545 34.4811C43.4634 34.499 43.6622 34.5784 43.8259 34.7092C43.9896 34.8401 44.1109 35.0165 44.1744 35.2162C44.238 35.4159 44.2409 35.63 44.1829 35.8314C44.1249 36.0327 44.0085 36.2124 43.8485 36.3477L39.3939 40.1871V40.1871ZM17.5242 22.9629C15.997 23.6417 15 25.1689 15 26.8447V36.8144C15 48.5871 23.1455 59.5962 34.0909 62.2689C45.0364 59.5962 53.1818 48.5871 53.1818 36.8144V26.8447C53.1818 25.1689 52.1848 23.6417 50.6576 22.9629L35.8091 16.3659C34.7061 15.878 33.4545 15.878 32.3727 16.3659L17.5242 22.9629V22.9629Z" fill="#FEFEFE"/>
<path d="M82.1828 53.7839H53.8776C53.1242 53.7907 52.4043 54.0962 51.8761 54.6334C51.3479 55.1706 51.0546 55.8956 51.0606 56.649V72.4306C51.0581 72.9601 51.2021 73.4799 51.4767 73.9326C51.7512 74.3853 52.1456 74.7533 52.6162 74.9959L66.1353 83.0281C66.7217 83.3271 67.3705 83.483 68.0288 83.483C68.687 83.483 69.3359 83.3271 69.9223 83.0281L83.4414 74.9959C83.9121 74.7539 84.3068 74.3866 84.5818 73.9344C84.8568 73.4822 85.0014 72.9627 84.9997 72.4335V56.6518C85.0042 56.2782 84.9348 55.9074 84.7954 55.5608C84.6561 55.2141 84.4496 54.8985 84.1878 54.6319C83.926 54.3654 83.6141 54.1533 83.27 54.0077C82.9259 53.8622 82.5564 53.7861 82.1828 53.7839V53.7839ZM76.515 69.3394H70.8584V74.9959H65.2019V69.3394H59.5454V63.6828H65.2019V58.0263H70.8584V63.6828H76.515V69.3394Z" fill="#FEFEFE"/>
</svg>
